PathFileType  4	(X/Y/Z) C:\Users\antoi\Documents\MyRepositories\mobilecap\ResultsAnalysis
DataRate	CameraRate	NumFrames	NumMarkers	Units	OrigDataRate	OrigDataStartFrame	OrigNumFrames
100.0	100.0	4	51	mm	100.0	219	291
Frame#	Time	r_knee			r_shank_antsup			r_ankle			r_calc			r_5meta			r_toe			L_knee			L_shank_antsup			L_ankle			L_calc			L_5meta			L_toe			r_sh2			r_sh3			r_sh4			L_sh2			L_sh3			r_thigh1			r_thigh2			r_thigh3			r_thigh4			r_thigh5			L_thigh1			L_thigh2			L_thigh3			L_thigh4			r.ASIS			r.PSIS			L.ASIS			L.PSIS			C7			R_Shoulder			L_Shoulder			R_Sternum			L_Sternum			R_humerus			R_elbow_med			R_elbow_lat			R_forearm			R_wrist_radius			R_wrist_ulna			L_humerus			L_elbow_med			L_elbow_lat			L_forearm			L_wrist_radius			L_wrist_ulna			R_HJC			L_HJC			R_HJC_reg			L_HJC_reg			
		X1	Y1	Z1	X2	Y2	Z2	X3	Y3	Z3	X4	Y4	Z4	X5	Y5	Z5	X6	Y6	Z6	X7	Y7	Z7	X8	Y8	Z8	X9	Y9	Z9	X10	Y10	Z10	X11	Y11	Z11	X12	Y12	Z12	X13	Y13	Z13	X14	Y14	Z14	X15	Y15	Z15	X16	Y16	Z16	X17	Y17	Z17	X18	Y18	Z18	X19	Y19	Z19	X20	Y20	Z20	X21	Y21	Z21	X22	Y22	Z22	X23	Y23	Z23	X24	Y24	Z24	X25	Y25	Z25	X26	Y26	Z26	X27	Y27	Z27	X28	Y28	Z28	X29	Y29	Z29	X30	Y30	Z30	X31	Y31	Z31	X32	Y32	Z32	X33	Y33	Z33	X34	Y34	Z34	X35	Y35	Z35	X36	Y36	Z36	X37	Y37	Z37	X38	Y38	Z38	X39	Y39	Z39	X40	Y40	Z40	X41	Y41	Z41	X42	Y42	Z42	X43	Y43	Z43	X44	Y44	Z44	X45	Y45	Z45	X46	Y46	Z46	X47	Y47	Z47	X48	Y48	Z48	X49	Y49	Z49	X50	Y50	Z50	X51	Y51	Z51	

219	2.18000000	-213.99447	536.23738	-412.04716	-176.69003	476.67066	-407.38202	-212.03136	146.66464	-406.24648	-271.68246	148.78576	-452.39094	-139.98773	51.96049	-384.18756	-91.45565	56.91896	-434.88670	-162.48691	544.64080	-761.01637	-123.91590	465.76062	-764.42431	-166.57711	168.35445	-820.86942	-223.47218	161.75374	-769.13036	-104.50370	59.65562	-847.94894	-45.22651	56.58334	-803.13997	-187.04822	365.12616	-393.20854	-249.57771	486.25193	-384.70753	-267.43037	370.58813	-379.05817	-203.00230	485.90556	-804.55805	-203.24521	364.64110	-829.05051	-205.57818	795.49391	-378.18478	-183.89981	683.80577	-386.57363	-240.35003	649.98663	-388.09965	-313.86237	772.89366	-401.67550	-288.12557	659.44561	-414.14287	-160.47787	833.90549	-762.77466	-127.56020	699.39520	-758.96191	-268.13552	807.46601	-774.81500	-240.38080	670.71084	-756.61811	-162.06543	977.78558	-449.25014	-337.86643	1053.66314	-542.72149	-135.00164	983.73738	-659.64207	-326.95958	1053.94715	-623.53170	-145.56864	1455.71474	-533.86496	-89.68657	1464.94249	-433.51381	-73.03578	1483.78117	-615.72010	-20.69249	1399.74225	-505.30948	-18.37158	1398.73599	-542.84471	-51.67938	1469.33019	-339.45362	-10.27959	1381.96640	-134.55011	-37.70183	1453.26010	-134.20183	10.84419	1508.85477	-199.97620	99.79460	1551.04541	-289.10448	117.71314	1566.30772	-258.39910	-36.18916	1524.30682	-683.96406	115.32116	1540.18274	-852.68722	63.87784	1594.04877	-844.10148	106.14455	1650.13604	-756.96766	161.48155	1687.42097	-652.81582	189.84052	1702.63485	-679.41068	-256.84808	910.76002	-466.19346	-227.56007	917.36627	-671.51736	-239.75751	933.11468	-488.90105	-221.02548	933.60353	-627.69772	
220	2.19000000	-233.59341	556.97297	-414.87457	-194.53409	499.81680	-409.43626	-204.14432	167.31058	-402.40548	-261.60740	173.08808	-450.88274	-137.39378	67.01498	-380.10556	-86.54765	70.48403	-428.57652	-186.48268	566.11332	-759.36090	-141.38497	489.96506	-763.38352	-159.20957	188.28716	-822.29981	-214.04363	186.01181	-767.32970	-101.26486	73.67844	-841.94143	-39.34168	72.65495	-800.57447	-196.88922	388.00347	-392.13435	-268.25097	505.04356	-389.12084	-277.69369	387.23049	-381.25631	-223.43573	503.55182	-799.63604	-213.95332	382.99808	-825.81731	-204.33194	814.51205	-379.81170	-191.01781	701.68457	-388.76395	-250.11175	671.98169	-390.35951	-314.57429	800.16409	-401.13107	-297.80867	685.33083	-415.01833	-159.85050	852.78953	-762.03448	-137.07703	716.09393	-757.42380	-268.90110	834.25603	-775.61027	-251.93311	696.22163	-754.21088	-153.59044	1002.09052	-450.09959	-329.90394	1075.67199	-540.42715	-128.03740	1010.67657	-660.06781	-319.69548	1076.42232	-620.79391	-149.58505	1480.38332	-530.13201	-93.41791	1487.45107	-429.33452	-79.32131	1506.36334	-613.46275	-24.59245	1424.82501	-502.41088	-21.28964	1425.91088	-540.87803	-62.09472	1491.52606	-331.40754	-44.86099	1404.49260	-122.61376	-65.47738	1476.79407	-128.77109	-5.55298	1527.33121	-187.88856	98.35445	1558.82825	-266.38489	113.61639	1573.07709	-233.49226	-47.81899	1549.80189	-684.62069	80.08785	1570.61077	-871.70088	31.76709	1624.07909	-852.74357	86.24516	1674.76085	-769.49468	157.63121	1704.36848	-672.65757	181.38377	1721.69235	-701.48918	-246.39842	933.32488	-466.28323	-219.20115	942.64715	-671.78755	-230.52106	957.35895	-489.15240	-212.91916	958.65564	-627.74947	
221	2.20000000	-247.54071	578.62669	-419.00331	-207.06457	522.81278	-412.35465	-203.28509	188.55091	-401.81686	-255.61501	194.86595	-455.19619	-138.92667	87.35064	-374.85912	-83.95869	90.58602	-417.14240	-203.46451	588.71654	-757.27514	-154.63260	513.73571	-762.32038	-157.38559	207.59680	-820.48058	-212.14382	205.84252	-765.61599	-96.05868	92.27412	-832.66847	-33.47473	96.66935	-792.53651	-204.37543	411.31498	-392.63024	-280.54108	526.20024	-393.64686	-285.11133	407.13779	-383.09824	-238.61557	523.17934	-794.77402	-223.48597	403.74739	-822.97542	-203.41663	831.83785	-380.57523	-197.92947	718.44154	-391.88929	-258.86375	692.94169	-394.60448	-314.59592	825.24953	-401.59236	-305.76484	710.22937	-418.33797	-159.65469	870.34029	-762.55265	-146.49720	732.24824	-756.50066	-269.80131	859.31717	-775.42565	-262.30645	720.88148	-749.74669	-145.68866	1024.87149	-451.30763	-322.80187	1098.01515	-538.47864	-122.41918	1035.57294	-660.69314	-313.01905	1098.91542	-618.19493	-153.24112	1502.48472	-526.89232	-97.17152	1508.24847	-424.91216	-86.70417	1527.48678	-613.24090	-28.35519	1446.92866	-499.33201	-24.53713	1449.70936	-538.65924	-73.19493	1512.60807	-323.61720	-79.57262	1424.83487	-114.53436	-90.99983	1497.34073	-125.26018	-19.36502	1541.57102	-175.14386	96.73374	1563.83530	-239.24184	109.87356	1575.80073	-203.10576	-60.47362	1571.84367	-684.73993	41.93511	1596.11470	-887.48881	-0.53199	1649.76547	-858.40770	67.09580	1695.60340	-782.53551	154.51703	1717.97803	-697.67263	173.39367	1736.80482	-728.07705	-237.64984	955.42031	-466.46626	-212.90577	966.83883	-672.17665	-223.01273	980.95638	-489.97372	-206.05155	982.51204	-628.15328	
222	2.21000000	-254.23691	599.22755	-423.27157	-214.34832	544.30526	-415.23675	-207.54328	208.32104	-403.84640	-252.88793	213.93692	-463.47644	-145.06272	108.11788	-370.12863	-85.57513	111.77272	-404.37140	-210.10076	609.46600	-754.62009	-162.73637	534.95312	-760.59337	-160.88345	225.10735	-814.81109	-215.44490	222.25471	-759.89789	-94.20700	110.94433	-822.04801	-31.70669	120.40199	-782.82208	-210.34510	433.14852	-394.87437	-287.88830	547.44198	-398.35496	-291.16590	427.84902	-386.87350	-247.28765	543.29849	-790.95378	-231.27813	424.45975	-820.24153	-202.87059	848.54020	-380.36598	-202.52828	735.38994	-394.14017	-264.57303	712.78148	-399.05258	-313.97681	847.49049	-403.15708	-309.76182	732.73187	-423.54132	-160.11212	887.70888	-764.39975	-153.69290	749.00593	-756.84885	-271.08320	882.18560	-773.61793	-269.13921	744.09504	-744.79962	-139.03195	1045.67474	-452.80275	-317.27846	1120.82551	-536.57543	-119.00659	1057.65645	-660.54502	-307.54713	1121.63494	-615.84555	-156.35592	1522.02909	-524.22025	-100.85054	1527.64076	-420.38424	-93.76826	1547.17043	-613.53113	-31.17769	1466.56128	-496.70132	-27.76841	1469.67747	-536.43658	-83.23557	1531.17266	-318.18380	-112.74562	1442.87017	-111.00267	-113.60864	1514.79874	-122.78767	-31.61111	1551.39767	-161.22055	93.91507	1565.28445	-207.13546	104.37236	1574.33157	-168.43887	-73.90377	1590.71301	-684.42201	2.34587	1616.32957	-899.39262	-31.59908	1670.69594	-861.36148	49.03508	1712.12566	-796.58949	150.29522	1728.50601	-727.02915	164.77681	1747.86388	-759.13903	-231.84217	976.97510	-466.27309	-209.68200	989.52170	-672.21315	-218.03927	1003.66563	-491.23067	-201.22800	1005.06441	-628.17032	
